<svg width="275" height="275" xmlns="http://www.w3.org/2000/svg">
 <!-- Created with Method Draw - http://github.com/duopixel/Method-Draw/ -->

 <g>
  <title>cgicon</title>
  <rect fill="none" id="canvas_background" height="277" width="277" y="-1" x="-1"/>
 </g>
 <g>
  <title>Layer 1</title>
  <path stroke="#000" id="svg_13" d="m30.755095,60.512719c0,0 0,-43.249986 -0.5,-43.720094c0.5,0.470109 158.5,-13.633148 158.5,118.93746c0,132.570608 -159.57378,119.731248 -159.09017,119.877677c0.17212,0.778378 0.02941,-37.004387 0.22227,-37.138575c-0.42045,0 112.8679,3.760868 111.8679,-81.798886c-1,-85.559754 -111,-76.157583 -111,-76.157583z" fill-opacity="null" stroke-opacity="null" stroke-width="0" fill="#000000"/>
  <path stroke="#000" id="svg_14" d="m244.864833,58.159864c0,0 0,-39.957432 -0.5,-40.433116c0.5,0.475684 -171.50001,-11.892064 -173.5,118.445246c-1.99999,130.33731 175.7007,119.248447 175.85644,119.396613c0.5,0.163759 0.50001,-81.476515 0.50001,-84.211611c3.74988,0 -41.88586,-0.208254 -41.65057,0.015593c0,-0.447704 0.70589,40.796871 0.44118,41.216596c0.2647,0.475684 -81.14706,-10.772838 -82.14706,-76.417191c-1,-65.644353 92.50008,-78.963497 121,-78.01213z" stroke-opacity="null" stroke-width="0" fill="#000000"/>
 </g>
</svg>
